<mxfile host="Electron" modified="2023-09-24T01:38:04.195Z" agent="Mozilla/5.0 (Macintosh; Intel Mac OS X 10_15_7) AppleWebKit/537.36 (KHTML, like Gecko) draw.io/21.7.5 Chrome/114.0.5735.289 Electron/25.8.1 Safari/537.36" etag="V-h1CE8AvgMKWDmr6bSy" version="21.7.5" type="device">
  <diagram name="Página-1" id="3rUxHpD9KrbsNHCOs4sh">
    <mxGraphModel dx="1314" dy="881" grid="1" gridSize="10" guides="1" tooltips="1" connect="1" arrows="1" fold="1" page="1" pageScale="1" pageWidth="1169" pageHeight="827" math="0" shadow="0">
      <root>
        <mxCell id="0" />
        <mxCell id="1" parent="0" />
        <mxCell id="EXhi-FRhneq4_aZSnBMV-6" style="edgeStyle=orthogonalEdgeStyle;rounded=0;orthogonalLoop=1;jettySize=auto;html=1;entryX=0;entryY=0.5;entryDx=0;entryDy=0;curved=1;endSize=8;endArrow=classic;endFill=1;" edge="1" parent="1" source="EXhi-FRhneq4_aZSnBMV-1" target="EXhi-FRhneq4_aZSnBMV-5">
          <mxGeometry relative="1" as="geometry" />
        </mxCell>
        <mxCell id="EXhi-FRhneq4_aZSnBMV-10" style="edgeStyle=orthogonalEdgeStyle;rounded=0;orthogonalLoop=1;jettySize=auto;html=1;entryX=0.5;entryY=0;entryDx=0;entryDy=0;curved=1;" edge="1" parent="1" source="EXhi-FRhneq4_aZSnBMV-1" target="EXhi-FRhneq4_aZSnBMV-7">
          <mxGeometry relative="1" as="geometry" />
        </mxCell>
        <mxCell id="EXhi-FRhneq4_aZSnBMV-11" style="edgeStyle=orthogonalEdgeStyle;rounded=0;orthogonalLoop=1;jettySize=auto;html=1;entryX=0;entryY=0.5;entryDx=0;entryDy=0;curved=1;" edge="1" parent="1" source="EXhi-FRhneq4_aZSnBMV-1" target="EXhi-FRhneq4_aZSnBMV-4">
          <mxGeometry relative="1" as="geometry" />
        </mxCell>
        <mxCell id="EXhi-FRhneq4_aZSnBMV-13" style="edgeStyle=orthogonalEdgeStyle;rounded=0;orthogonalLoop=1;jettySize=auto;html=1;entryX=0.5;entryY=1;entryDx=0;entryDy=0;curved=1;" edge="1" parent="1" source="EXhi-FRhneq4_aZSnBMV-1" target="EXhi-FRhneq4_aZSnBMV-12">
          <mxGeometry relative="1" as="geometry" />
        </mxCell>
        <mxCell id="EXhi-FRhneq4_aZSnBMV-18" style="edgeStyle=orthogonalEdgeStyle;rounded=0;orthogonalLoop=1;jettySize=auto;html=1;entryX=0;entryY=0.5;entryDx=0;entryDy=0;curved=1;" edge="1" parent="1" source="EXhi-FRhneq4_aZSnBMV-1" target="EXhi-FRhneq4_aZSnBMV-14">
          <mxGeometry relative="1" as="geometry" />
        </mxCell>
        <mxCell id="EXhi-FRhneq4_aZSnBMV-21" style="edgeStyle=orthogonalEdgeStyle;rounded=0;orthogonalLoop=1;jettySize=auto;html=1;entryX=0;entryY=0.5;entryDx=0;entryDy=0;curved=1;" edge="1" parent="1" source="EXhi-FRhneq4_aZSnBMV-1" target="EXhi-FRhneq4_aZSnBMV-19">
          <mxGeometry relative="1" as="geometry" />
        </mxCell>
        <mxCell id="EXhi-FRhneq4_aZSnBMV-22" style="edgeStyle=orthogonalEdgeStyle;rounded=0;orthogonalLoop=1;jettySize=auto;html=1;entryX=0;entryY=0.5;entryDx=0;entryDy=0;curved=1;" edge="1" parent="1" source="EXhi-FRhneq4_aZSnBMV-1" target="EXhi-FRhneq4_aZSnBMV-2">
          <mxGeometry relative="1" as="geometry" />
        </mxCell>
        <mxCell id="EXhi-FRhneq4_aZSnBMV-23" style="edgeStyle=orthogonalEdgeStyle;rounded=0;orthogonalLoop=1;jettySize=auto;html=1;entryX=0;entryY=0.5;entryDx=0;entryDy=0;curved=1;" edge="1" parent="1" source="EXhi-FRhneq4_aZSnBMV-1" target="EXhi-FRhneq4_aZSnBMV-3">
          <mxGeometry relative="1" as="geometry" />
        </mxCell>
        <mxCell id="EXhi-FRhneq4_aZSnBMV-25" style="edgeStyle=orthogonalEdgeStyle;rounded=0;orthogonalLoop=1;jettySize=auto;html=1;entryX=1;entryY=0.5;entryDx=0;entryDy=0;curved=1;" edge="1" parent="1" source="EXhi-FRhneq4_aZSnBMV-1" target="EXhi-FRhneq4_aZSnBMV-24">
          <mxGeometry relative="1" as="geometry" />
        </mxCell>
        <mxCell id="EXhi-FRhneq4_aZSnBMV-28" style="edgeStyle=orthogonalEdgeStyle;rounded=0;orthogonalLoop=1;jettySize=auto;html=1;entryX=1;entryY=0.5;entryDx=0;entryDy=0;curved=1;" edge="1" parent="1" source="EXhi-FRhneq4_aZSnBMV-1" target="EXhi-FRhneq4_aZSnBMV-27">
          <mxGeometry relative="1" as="geometry" />
        </mxCell>
        <mxCell id="EXhi-FRhneq4_aZSnBMV-1" value="Usuário" style="shape=umlActor;verticalLabelPosition=bottom;verticalAlign=top;html=1;outlineConnect=0;" vertex="1" parent="1">
          <mxGeometry x="330" y="330" width="30" height="60" as="geometry" />
        </mxCell>
        <mxCell id="EXhi-FRhneq4_aZSnBMV-32" style="edgeStyle=orthogonalEdgeStyle;rounded=0;orthogonalLoop=1;jettySize=auto;html=1;entryX=0;entryY=0.5;entryDx=0;entryDy=0;dashed=1;strokeWidth=1.5;endArrow=open;endFill=0;curved=1;" edge="1" parent="1" source="EXhi-FRhneq4_aZSnBMV-2" target="EXhi-FRhneq4_aZSnBMV-29">
          <mxGeometry relative="1" as="geometry" />
        </mxCell>
        <mxCell id="EXhi-FRhneq4_aZSnBMV-39" value="include" style="edgeLabel;html=1;align=center;verticalAlign=middle;resizable=0;points=[];" vertex="1" connectable="0" parent="EXhi-FRhneq4_aZSnBMV-32">
          <mxGeometry x="-0.6831" y="-11" relative="1" as="geometry">
            <mxPoint as="offset" />
          </mxGeometry>
        </mxCell>
        <mxCell id="EXhi-FRhneq4_aZSnBMV-2" value="Cadastrar prescrições de medicamentos&lt;br&gt;RF-06" style="ellipse;whiteSpace=wrap;html=1;" vertex="1" parent="1">
          <mxGeometry x="650" y="290" width="130" height="90" as="geometry" />
        </mxCell>
        <mxCell id="EXhi-FRhneq4_aZSnBMV-31" style="edgeStyle=orthogonalEdgeStyle;rounded=0;orthogonalLoop=1;jettySize=auto;html=1;entryX=0;entryY=0.5;entryDx=0;entryDy=0;dashed=1;strokeWidth=1.5;endArrow=open;endFill=0;curved=1;" edge="1" parent="1" source="EXhi-FRhneq4_aZSnBMV-3" target="EXhi-FRhneq4_aZSnBMV-29">
          <mxGeometry relative="1" as="geometry" />
        </mxCell>
        <mxCell id="EXhi-FRhneq4_aZSnBMV-38" value="include" style="edgeLabel;html=1;align=center;verticalAlign=middle;resizable=0;points=[];" vertex="1" connectable="0" parent="EXhi-FRhneq4_aZSnBMV-31">
          <mxGeometry x="-0.3394" y="-9" relative="1" as="geometry">
            <mxPoint y="1" as="offset" />
          </mxGeometry>
        </mxCell>
        <mxCell id="EXhi-FRhneq4_aZSnBMV-3" value="Cadastrar Medicamento&lt;br&gt;RF-06" style="ellipse;whiteSpace=wrap;html=1;" vertex="1" parent="1">
          <mxGeometry x="655" y="190" width="120" height="80" as="geometry" />
        </mxCell>
        <mxCell id="EXhi-FRhneq4_aZSnBMV-35" style="edgeStyle=orthogonalEdgeStyle;rounded=0;orthogonalLoop=1;jettySize=auto;html=1;entryX=0;entryY=0.5;entryDx=0;entryDy=0;dashed=1;strokeWidth=1.5;endArrow=open;endFill=0;curved=1;" edge="1" parent="1" source="EXhi-FRhneq4_aZSnBMV-4" target="EXhi-FRhneq4_aZSnBMV-29">
          <mxGeometry relative="1" as="geometry" />
        </mxCell>
        <mxCell id="EXhi-FRhneq4_aZSnBMV-41" value="include" style="edgeLabel;html=1;align=center;verticalAlign=middle;resizable=0;points=[];" vertex="1" connectable="0" parent="EXhi-FRhneq4_aZSnBMV-35">
          <mxGeometry x="0.0041" y="-1" relative="1" as="geometry">
            <mxPoint as="offset" />
          </mxGeometry>
        </mxCell>
        <mxCell id="EXhi-FRhneq4_aZSnBMV-4" value="Gerenciar perfil e informações médicas&lt;br&gt;RF-04" style="ellipse;whiteSpace=wrap;html=1;" vertex="1" parent="1">
          <mxGeometry x="490" y="620" width="140" height="80" as="geometry" />
        </mxCell>
        <mxCell id="EXhi-FRhneq4_aZSnBMV-34" style="edgeStyle=orthogonalEdgeStyle;rounded=0;orthogonalLoop=1;jettySize=auto;html=1;entryX=0;entryY=0.5;entryDx=0;entryDy=0;dashed=1;strokeWidth=1.5;endArrow=open;endFill=0;curved=1;" edge="1" parent="1" source="EXhi-FRhneq4_aZSnBMV-5" target="EXhi-FRhneq4_aZSnBMV-29">
          <mxGeometry relative="1" as="geometry" />
        </mxCell>
        <mxCell id="EXhi-FRhneq4_aZSnBMV-40" value="include" style="edgeLabel;html=1;align=center;verticalAlign=middle;resizable=0;points=[];" vertex="1" connectable="0" parent="EXhi-FRhneq4_aZSnBMV-34">
          <mxGeometry x="-0.4149" y="1" relative="1" as="geometry">
            <mxPoint as="offset" />
          </mxGeometry>
        </mxCell>
        <mxCell id="EXhi-FRhneq4_aZSnBMV-5" value="Cadastrar&lt;br&gt;&amp;nbsp;prescrições médicas&lt;br&gt;RF-07" style="ellipse;whiteSpace=wrap;html=1;" vertex="1" parent="1">
          <mxGeometry x="550" y="510" width="120" height="70" as="geometry" />
        </mxCell>
        <mxCell id="EXhi-FRhneq4_aZSnBMV-9" style="edgeStyle=orthogonalEdgeStyle;rounded=0;orthogonalLoop=1;jettySize=auto;html=1;curved=1;" edge="1" parent="1" source="EXhi-FRhneq4_aZSnBMV-7" target="EXhi-FRhneq4_aZSnBMV-8">
          <mxGeometry relative="1" as="geometry" />
        </mxCell>
        <mxCell id="EXhi-FRhneq4_aZSnBMV-7" value="Enviar Receitas&amp;nbsp;&lt;br&gt;médicas para Farmácias&lt;br&gt;RF-10" style="ellipse;whiteSpace=wrap;html=1;verticalAlign=middle;" vertex="1" parent="1">
          <mxGeometry x="60" y="440" width="130" height="90" as="geometry" />
        </mxCell>
        <mxCell id="EXhi-FRhneq4_aZSnBMV-8" value="Farmácia" style="shape=umlActor;verticalLabelPosition=bottom;verticalAlign=top;html=1;outlineConnect=0;" vertex="1" parent="1">
          <mxGeometry x="130" y="600" width="30" height="60" as="geometry" />
        </mxCell>
        <mxCell id="EXhi-FRhneq4_aZSnBMV-36" style="edgeStyle=orthogonalEdgeStyle;rounded=0;orthogonalLoop=1;jettySize=auto;html=1;entryX=0;entryY=0.5;entryDx=0;entryDy=0;dashed=1;endArrow=open;endFill=0;curved=1;strokeWidth=1.5;" edge="1" parent="1" source="EXhi-FRhneq4_aZSnBMV-12" target="EXhi-FRhneq4_aZSnBMV-29">
          <mxGeometry relative="1" as="geometry">
            <Array as="points">
              <mxPoint x="920" y="160" />
              <mxPoint x="920" y="520" />
            </Array>
          </mxGeometry>
        </mxCell>
        <mxCell id="EXhi-FRhneq4_aZSnBMV-47" value="include" style="edgeLabel;html=1;align=center;verticalAlign=middle;resizable=0;points=[];" vertex="1" connectable="0" parent="EXhi-FRhneq4_aZSnBMV-36">
          <mxGeometry x="0.2326" y="-34" relative="1" as="geometry">
            <mxPoint as="offset" />
          </mxGeometry>
        </mxCell>
        <mxCell id="EXhi-FRhneq4_aZSnBMV-12" value="Consultar &lt;br&gt;Farmácias&lt;br&gt;RF-09" style="ellipse;whiteSpace=wrap;html=1;" vertex="1" parent="1">
          <mxGeometry x="360" y="120" width="120" height="80" as="geometry" />
        </mxCell>
        <mxCell id="EXhi-FRhneq4_aZSnBMV-30" style="edgeStyle=orthogonalEdgeStyle;rounded=0;orthogonalLoop=1;jettySize=auto;html=1;entryX=0.5;entryY=0;entryDx=0;entryDy=0;dashed=1;strokeWidth=1.5;endArrow=open;endFill=0;curved=1;" edge="1" parent="1" source="EXhi-FRhneq4_aZSnBMV-14" target="EXhi-FRhneq4_aZSnBMV-29">
          <mxGeometry relative="1" as="geometry" />
        </mxCell>
        <mxCell id="EXhi-FRhneq4_aZSnBMV-37" value="include" style="edgeLabel;html=1;align=center;verticalAlign=middle;resizable=0;points=[];" vertex="1" connectable="0" parent="EXhi-FRhneq4_aZSnBMV-30">
          <mxGeometry x="0.2525" y="-32" relative="1" as="geometry">
            <mxPoint as="offset" />
          </mxGeometry>
        </mxCell>
        <mxCell id="EXhi-FRhneq4_aZSnBMV-14" value="Upload de arquivos: Solicitações de exames, resultados, prescrições etc.&lt;br&gt;RF-08" style="ellipse;whiteSpace=wrap;html=1;" vertex="1" parent="1">
          <mxGeometry x="635" y="50" width="170" height="110" as="geometry" />
        </mxCell>
        <mxCell id="EXhi-FRhneq4_aZSnBMV-33" value="include" style="edgeStyle=orthogonalEdgeStyle;rounded=0;orthogonalLoop=1;jettySize=auto;html=1;entryX=0;entryY=0.5;entryDx=0;entryDy=0;dashed=1;strokeWidth=1.5;endArrow=open;endFill=0;curved=1;" edge="1" parent="1" source="EXhi-FRhneq4_aZSnBMV-19" target="EXhi-FRhneq4_aZSnBMV-29">
          <mxGeometry relative="1" as="geometry" />
        </mxCell>
        <mxCell id="EXhi-FRhneq4_aZSnBMV-19" value="&amp;nbsp;Monitorar prescrições de medicamentos&lt;br&gt;RF-06" style="ellipse;whiteSpace=wrap;html=1;" vertex="1" parent="1">
          <mxGeometry x="660" y="400" width="120" height="76" as="geometry" />
        </mxCell>
        <mxCell id="EXhi-FRhneq4_aZSnBMV-26" style="edgeStyle=orthogonalEdgeStyle;rounded=0;orthogonalLoop=1;jettySize=auto;html=1;exitX=0.5;exitY=1;exitDx=0;exitDy=0;curved=1;entryX=0.5;entryY=0;entryDx=0;entryDy=0;entryPerimeter=0;" edge="1" parent="1" source="EXhi-FRhneq4_aZSnBMV-24" target="EXhi-FRhneq4_aZSnBMV-1">
          <mxGeometry relative="1" as="geometry">
            <mxPoint x="330" y="360" as="targetPoint" />
          </mxGeometry>
        </mxCell>
        <mxCell id="EXhi-FRhneq4_aZSnBMV-24" value="Recuperar senha&lt;br&gt;RF-03" style="ellipse;whiteSpace=wrap;html=1;" vertex="1" parent="1">
          <mxGeometry x="110" y="160" width="120" height="80" as="geometry" />
        </mxCell>
        <mxCell id="EXhi-FRhneq4_aZSnBMV-27" value="Efetuar cadastro no sistema&lt;br&gt;RF-02" style="ellipse;whiteSpace=wrap;html=1;" vertex="1" parent="1">
          <mxGeometry x="20" y="295" width="120" height="80" as="geometry" />
        </mxCell>
        <mxCell id="EXhi-FRhneq4_aZSnBMV-29" value="Fazer login&lt;br&gt;RF-01" style="ellipse;whiteSpace=wrap;html=1;" vertex="1" parent="1">
          <mxGeometry x="980" y="480" width="120" height="80" as="geometry" />
        </mxCell>
        <mxCell id="EXhi-FRhneq4_aZSnBMV-42" style="edgeStyle=orthogonalEdgeStyle;rounded=0;orthogonalLoop=1;jettySize=auto;html=1;entryX=0.5;entryY=1;entryDx=0;entryDy=0;dashed=1;strokeWidth=1.5;endArrow=open;endFill=0;curved=1;exitX=1;exitY=0.5;exitDx=0;exitDy=0;" edge="1" parent="1" source="EXhi-FRhneq4_aZSnBMV-7" target="EXhi-FRhneq4_aZSnBMV-29">
          <mxGeometry relative="1" as="geometry">
            <mxPoint x="815" y="115" as="sourcePoint" />
            <mxPoint x="1050" y="490" as="targetPoint" />
            <Array as="points">
              <mxPoint x="250" y="485" />
              <mxPoint x="250" y="720" />
              <mxPoint x="1040" y="720" />
            </Array>
          </mxGeometry>
        </mxCell>
        <mxCell id="EXhi-FRhneq4_aZSnBMV-48" value="include" style="edgeLabel;html=1;align=center;verticalAlign=middle;resizable=0;points=[];" vertex="1" connectable="0" parent="EXhi-FRhneq4_aZSnBMV-42">
          <mxGeometry x="0.1524" y="-1" relative="1" as="geometry">
            <mxPoint as="offset" />
          </mxGeometry>
        </mxCell>
        <mxCell id="EXhi-FRhneq4_aZSnBMV-49" value="Diagrama de Casos de Uso - MedOrganizaer" style="text;html=1;strokeColor=none;fillColor=none;align=center;verticalAlign=middle;whiteSpace=wrap;rounded=0;fontSize=14;fontStyle=1" vertex="1" parent="1">
          <mxGeometry x="200" y="10" width="760" height="30" as="geometry" />
        </mxCell>
        <mxCell id="EXhi-FRhneq4_aZSnBMV-50" value="Projeto MedOrganizer PMV-ADS-2023-E2-GRUPO5" style="text;html=1;strokeColor=none;fillColor=none;align=left;verticalAlign=middle;whiteSpace=wrap;rounded=0;" vertex="1" parent="1">
          <mxGeometry x="40" y="770" width="760" height="30" as="geometry" />
        </mxCell>
      </root>
    </mxGraphModel>
  </diagram>
</mxfile>
